<?xml version="1.0" encoding="UTF-8" standalone="no"?>
<svg width="200px" height="200px" viewBox="0 0 200 200" version="1.1" xmlns="http://www.w3.org/2000/svg" xmlns:xlink="http://www.w3.org/1999/xlink">
    <!-- Generator: Sketch 3.7.1 (28215) - http://www.bohemiancoding.com/sketch -->
    <title>icon-email</title>
    <desc>Created with Sketch.</desc>
    <defs></defs>
    <g id="Page-1" stroke="none" stroke-width="1" fill="none" fill-rule="evenodd">
        <g id="icon-email" fill="#FFFFFF">
            <g id="Page-1" transform="translate(19.907520, 37.182369)">
                <path d="M159.699604,40.4594954 C157.024636,43.4006298 153.990343,45.98244 150.783043,48.2182345 C135.904363,58.2793095 120.932525,68.446851 106.413169,78.9604082 C98.9205963,84.4833529 89.6580193,91.2572777 79.94296,91.2572777 L79.8498019,91.2572777 L79.7566438,91.2572777 C70.0415846,91.2572777 60.7790076,84.4833529 53.2864345,78.9604082 C38.7670788,68.3536929 23.795241,58.2793095 8.99641102,48.2182345 C5.70926084,45.98244 2.67496837,43.4006298 0,40.4594954 L0,111.219728 C0,119.058317 6.41460076,125.472918 14.2531896,125.472918 L145.446414,125.472918 C153.285003,125.472918 159.699604,119.058317 159.699604,111.219728 L159.699604,40.4594954 Z" id="Fill-1"></path>
                <path d="M159.699604,14.2594445 C159.699604,6.42085566 153.191845,0.00625490115 145.446414,0.00625490115 L14.2531896,0.00625490115 C4.72444662,0.00625490115 0,7.48551968 0,16.2157647 C0,24.3338279 8.99641102,34.3949029 15.331162,38.6801756 C29.1451777,48.3020768 43.1322014,57.9239779 56.9462171,67.6390371 C62.7353277,71.6448355 72.5435451,79.8560568 79.7566438,79.8560568 L79.8498019,79.8560568 L79.94296,79.8560568 C87.1560588,79.8560568 96.9642762,71.6448355 102.753387,67.6390371 C116.567403,57.9239779 130.554426,48.3020768 144.4616,38.6801756 C152.300189,33.2370808 159.699604,24.2406698 159.699604,14.2594445" id="Fill-3"></path>
            </g>
        </g>
    </g>
</svg>