<?xml version="1.0" encoding="UTF-8" standalone="no"?>
<svg width="200px" height="200px" viewBox="0 0 200 200" version="1.1" xmlns="http://www.w3.org/2000/svg" xmlns:xlink="http://www.w3.org/1999/xlink">
    <!-- Generator: Sketch 3.7.1 (28215) - http://www.bohemiancoding.com/sketch -->
    <title>icon-twitter</title>
    <desc>Created with Sketch.</desc>
    <defs></defs>
    <g id="Page-1" stroke="none" stroke-width="1" fill="none" fill-rule="evenodd">
        <g id="icon-twitter" fill="#FFFFFF">
            <path d="M176.90021,66.7298831 C176.90021,65.0597181 176.866192,63.3970889 176.791276,61.7419765 C184.325782,56.2951639 190.874756,49.4979266 196.03945,41.7602826 C189.125604,44.8335218 181.685137,46.9024139 173.879785,47.8352973 C181.846885,43.058039 187.963264,35.5009633 190.848424,26.491894 C183.392905,30.91179 175.136164,34.1242138 166.345272,35.858313 C159.303532,28.3576546 149.278831,23.6669251 138.178313,23.6669251 C116.86877,23.6669251 99.5879131,40.9477822 99.5879131,62.2497956 C99.5879131,65.2778895 99.9264549,68.2232414 100.588505,71.048204 C68.516992,69.4344752 40.0791805,54.0795704 21.0491843,30.7312344 C17.735198,36.4338405 15.8243047,43.058039 15.8243047,50.1261098 C15.8243047,63.5136977 22.636582,75.3326896 32.9960634,82.2465358 C26.6652741,82.0509338 20.7181593,80.3130604 15.5196044,77.4203832 C15.5139242,77.5822825 15.5139242,77.7401235 15.5139242,77.913156 C15.5139242,96.6008488 28.8149959,112.204024 46.4720106,115.739937 C43.2295005,116.62392 39.8177131,117.097879 36.2968464,117.097879 C33.814181,117.097879 31.3954623,116.853528 29.0444584,116.401987 C33.9571209,131.734322 48.2023482,142.891264 65.0920013,143.203488 C51.884969,153.55544 35.2473541,159.720732 17.1652813,159.720732 C14.0544201,159.720732 10.9811872,159.543787 7.96061008,159.186576 C25.038342,170.132882 45.3172004,176.520095 67.1119803,176.520095 C138.087884,176.520095 176.90021,117.718551 176.90021,66.7298831 Z" id="path3611"></path>
        </g>
    </g>
</svg>