<?xml version="1.0" encoding="UTF-8" standalone="no"?>
<svg width="201px" height="201px" viewBox="0 0 201 201" version="1.1" xmlns="http://www.w3.org/2000/svg" xmlns:xlink="http://www.w3.org/1999/xlink">
    <!-- Generator: Sketch 3.7.1 (28215) - http://www.bohemiancoding.com/sketch -->
    <title>icon-facebook</title>
    <desc>Created with Sketch.</desc>
    <defs></defs>
    <g id="Page-1" stroke="none" stroke-width="1" fill="none" fill-rule="evenodd">
        <g id="icon-facebook" fill="#FFFFFF">
            <g id="Group" transform="translate(18.577619, 18.577619)">
                <path d="M163.417394,154.419172 L163.417394,9.37085397 C163.417394,4.40010055 159.38866,0.371999874 154.419172,0.371999874 L9.37085397,0.371999874 C4.40010055,0.371999874 0.371999874,4.40010055 0.371999874,9.37085397 L0.371999874,154.419172 C0.371999874,159.38866 4.3994679,163.418659 9.37085397,163.418659 L154.419172,163.418659 C159.388028,163.418659 163.417394,159.389293 163.417394,154.419172 Z M112.870962,163.418659 L112.870962,100.278007 L134.0642,100.278007 L137.237586,75.6709744 L112.870962,75.6709744 L112.870962,59.9609389 C112.870962,52.8366352 114.849267,47.9816572 125.065345,47.9816572 L138.095463,47.9759633 L138.095463,25.9672361 C135.841954,25.6673587 128.10714,24.9973793 119.108286,24.9973793 C100.32166,24.9973793 87.4598275,36.4648448 87.4598275,57.5239601 L87.4598275,75.6709744 L66.2121817,75.6709744 L66.2121817,100.278007 L87.4598275,100.278007 L87.4598275,163.418659 L112.870962,163.418659 Z" id="Combined-Shape"></path>
            </g>
        </g>
    </g>
</svg>